%TF.GenerationSoftware,KiCad,Pcbnew,8.0.9-8.0.9-0~ubuntu24.04.1*%
%TF.CreationDate,2025-06-12T22:50:16-04:00*%
%TF.ProjectId,CoilTest,436f696c-5465-4737-942e-6b696361645f,0.0*%
%TF.SameCoordinates,Original*%
%TF.FileFunction,Profile,NP*%
%FSLAX46Y46*%
G04 Gerber Fmt 4.6, Leading zero omitted, Abs format (unit mm)*
G04 Created by KiCad (PCBNEW 8.0.9-8.0.9-0~ubuntu24.04.1) date 2025-06-12 22:50:16*
%MOMM*%
%LPD*%
G01*
G04 APERTURE LIST*
%TA.AperFunction,Profile*%
%ADD10C,0.050000*%
%TD*%
G04 APERTURE END LIST*
D10*
X168850000Y-84850000D02*
G75*
G02*
X163150000Y-84850000I-2850000J0D01*
G01*
X163150000Y-84850000D02*
G75*
G02*
X168850000Y-84850000I2850000J0D01*
G01*
X146850000Y-84850000D02*
G75*
G02*
X141150000Y-84850000I-2850000J0D01*
G01*
X141150000Y-84850000D02*
G75*
G02*
X146850000Y-84850000I2850000J0D01*
G01*
X192850000Y-62200000D02*
G75*
G02*
X187150000Y-62200000I-2850000J0D01*
G01*
X187150000Y-62200000D02*
G75*
G02*
X192850000Y-62200000I2850000J0D01*
G01*
X181850000Y-84850000D02*
G75*
G02*
X176150000Y-84850000I-2850000J0D01*
G01*
X176150000Y-84850000D02*
G75*
G02*
X181850000Y-84850000I2850000J0D01*
G01*
X175850000Y-62200000D02*
G75*
G02*
X170150000Y-62200000I-2850000J0D01*
G01*
X170150000Y-62200000D02*
G75*
G02*
X175850000Y-62200000I2850000J0D01*
G01*
X124850000Y-84850000D02*
G75*
G02*
X119150000Y-84850000I-2850000J0D01*
G01*
X119150000Y-84850000D02*
G75*
G02*
X124850000Y-84850000I2850000J0D01*
G01*
X141825484Y-62177901D02*
G75*
G02*
X136125484Y-62177901I-2850000J0D01*
G01*
X136125484Y-62177901D02*
G75*
G02*
X141825484Y-62177901I2850000J0D01*
G01*
X158831613Y-62182717D02*
G75*
G02*
X153131613Y-62182717I-2850000J0D01*
G01*
X153131613Y-62182717D02*
G75*
G02*
X158831613Y-62182717I2850000J0D01*
G01*
X194850000Y-84850000D02*
G75*
G02*
X189150000Y-84850000I-2850000J0D01*
G01*
X189150000Y-84850000D02*
G75*
G02*
X194850000Y-84850000I2850000J0D01*
G01*
X124830000Y-62180000D02*
G75*
G02*
X119130000Y-62180000I-2850000J0D01*
G01*
X119130000Y-62180000D02*
G75*
G02*
X124830000Y-62180000I2850000J0D01*
G01*
X200000000Y-100000000D02*
X100000000Y-100000000D01*
X100000000Y-50000000D01*
X200000000Y-50000000D01*
X200000000Y-100000000D01*
X135850000Y-84850000D02*
G75*
G02*
X130150000Y-84850000I-2850000J0D01*
G01*
X130150000Y-84850000D02*
G75*
G02*
X135850000Y-84850000I2850000J0D01*
G01*
M02*
