%TF.GenerationSoftware,KiCad,Pcbnew,8.0.9-8.0.9-0~ubuntu24.04.1*%
%TF.CreationDate,2025-06-12T22:50:13-04:00*%
%TF.ProjectId,CoilTest,436f696c-5465-4737-942e-6b696361645f,0.0*%
%TF.SameCoordinates,Original*%
%TF.FileFunction,Drillmap*%
%TF.FilePolarity,Positive*%
%FSLAX45Y45*%
G04 Gerber Fmt 4.5, Leading zero omitted, Abs format (unit mm)*
G04 Created by KiCad (PCBNEW 8.0.9-8.0.9-0~ubuntu24.04.1) date 2025-06-12 22:50:13*
%MOMM*%
%LPD*%
G01*
G04 APERTURE LIST*
%ADD10C,0.050000*%
%ADD11C,0.200000*%
%ADD12C,0.100000*%
G04 APERTURE END LIST*
D10*
X16885000Y-8485000D02*
G75*
G02*
X16315000Y-8485000I-285000J0D01*
G01*
X16315000Y-8485000D02*
G75*
G02*
X16885000Y-8485000I285000J0D01*
G01*
X14685000Y-8485000D02*
G75*
G02*
X14115000Y-8485000I-285000J0D01*
G01*
X14115000Y-8485000D02*
G75*
G02*
X14685000Y-8485000I285000J0D01*
G01*
X19285000Y-6220000D02*
G75*
G02*
X18715000Y-6220000I-285000J0D01*
G01*
X18715000Y-6220000D02*
G75*
G02*
X19285000Y-6220000I285000J0D01*
G01*
X18185000Y-8485000D02*
G75*
G02*
X17615000Y-8485000I-285000J0D01*
G01*
X17615000Y-8485000D02*
G75*
G02*
X18185000Y-8485000I285000J0D01*
G01*
X17585000Y-6220000D02*
G75*
G02*
X17015000Y-6220000I-285000J0D01*
G01*
X17015000Y-6220000D02*
G75*
G02*
X17585000Y-6220000I285000J0D01*
G01*
X12485000Y-8485000D02*
G75*
G02*
X11915000Y-8485000I-285000J0D01*
G01*
X11915000Y-8485000D02*
G75*
G02*
X12485000Y-8485000I285000J0D01*
G01*
X14182548Y-6217790D02*
G75*
G02*
X13612548Y-6217790I-285000J0D01*
G01*
X13612548Y-6217790D02*
G75*
G02*
X14182548Y-6217790I285000J0D01*
G01*
X15883161Y-6218272D02*
G75*
G02*
X15313161Y-6218272I-285000J0D01*
G01*
X15313161Y-6218272D02*
G75*
G02*
X15883161Y-6218272I285000J0D01*
G01*
X19485000Y-8485000D02*
G75*
G02*
X18915000Y-8485000I-285000J0D01*
G01*
X18915000Y-8485000D02*
G75*
G02*
X19485000Y-8485000I285000J0D01*
G01*
X12483000Y-6218000D02*
G75*
G02*
X11913000Y-6218000I-285000J0D01*
G01*
X11913000Y-6218000D02*
G75*
G02*
X12483000Y-6218000I285000J0D01*
G01*
X20000000Y-10000000D02*
X10000000Y-10000000D01*
X10000000Y-5000000D01*
X20000000Y-5000000D01*
X20000000Y-10000000D01*
X13585000Y-8485000D02*
G75*
G02*
X13015000Y-8485000I-285000J0D01*
G01*
X13015000Y-8485000D02*
G75*
G02*
X13585000Y-8485000I285000J0D01*
G01*
D11*
D12*
X12147000Y-5875000D02*
X12177000Y-5905000D01*
X12177000Y-5875000D02*
X12147000Y-5905000D01*
X12148000Y-8144000D02*
X12178000Y-8174000D01*
X12178000Y-8144000D02*
X12148000Y-8174000D01*
X12185000Y-5300000D02*
X12215000Y-5330000D01*
X12215000Y-5300000D02*
X12185000Y-5330000D01*
X12185000Y-7898000D02*
X12215000Y-7928000D01*
X12215000Y-7898000D02*
X12185000Y-7928000D01*
X12221000Y-8144000D02*
X12251000Y-8174000D01*
X12251000Y-8144000D02*
X12221000Y-8174000D01*
X12225000Y-5875000D02*
X12255000Y-5905000D01*
X12255000Y-5875000D02*
X12225000Y-5905000D01*
X13247935Y-8147267D02*
X13277935Y-8177267D01*
X13277935Y-8147267D02*
X13247935Y-8177267D01*
X13285000Y-7897000D02*
X13315000Y-7927000D01*
X13315000Y-7897000D02*
X13285000Y-7927000D01*
X13321791Y-8147144D02*
X13351791Y-8177144D01*
X13351791Y-8147144D02*
X13321791Y-8177144D01*
X13843644Y-5875794D02*
X13873644Y-5905794D01*
X13873644Y-5875794D02*
X13843644Y-5905794D01*
X13882644Y-5307795D02*
X13912644Y-5337795D01*
X13912644Y-5307795D02*
X13882644Y-5337795D01*
X13923644Y-5875794D02*
X13953644Y-5905794D01*
X13953644Y-5875794D02*
X13923644Y-5905794D01*
X14349000Y-8145000D02*
X14379000Y-8175000D01*
X14379000Y-8145000D02*
X14349000Y-8175000D01*
X14385000Y-7898000D02*
X14415000Y-7928000D01*
X14415000Y-7898000D02*
X14385000Y-7928000D01*
X14422000Y-8145000D02*
X14452000Y-8175000D01*
X14452000Y-8145000D02*
X14422000Y-8175000D01*
X15585000Y-5833000D02*
X15615000Y-5863000D01*
X15615000Y-5833000D02*
X15585000Y-5863000D01*
X16548000Y-8145000D02*
X16578000Y-8175000D01*
X16578000Y-8145000D02*
X16548000Y-8175000D01*
X16585000Y-7808000D02*
X16615000Y-7838000D01*
X16615000Y-7808000D02*
X16585000Y-7838000D01*
X16622000Y-8143000D02*
X16652000Y-8173000D01*
X16652000Y-8143000D02*
X16622000Y-8173000D01*
X17246599Y-5882386D02*
X17276599Y-5912386D01*
X17276599Y-5882386D02*
X17246599Y-5912386D01*
X17285000Y-5335000D02*
X17315000Y-5365000D01*
X17315000Y-5335000D02*
X17285000Y-5365000D01*
X17323426Y-5882388D02*
X17353426Y-5912388D01*
X17353426Y-5882388D02*
X17323426Y-5912388D01*
X17849000Y-8146000D02*
X17879000Y-8176000D01*
X17879000Y-8146000D02*
X17849000Y-8176000D01*
X17885000Y-7812000D02*
X17915000Y-7842000D01*
X17915000Y-7812000D02*
X17885000Y-7842000D01*
X17921000Y-8146000D02*
X17951000Y-8176000D01*
X17951000Y-8146000D02*
X17921000Y-8176000D01*
X18986000Y-5879000D02*
X19016000Y-5909000D01*
X19016000Y-5879000D02*
X18986000Y-5909000D01*
X19148000Y-8147000D02*
X19178000Y-8177000D01*
X19178000Y-8147000D02*
X19148000Y-8177000D01*
X19185000Y-7812000D02*
X19215000Y-7842000D01*
X19215000Y-7812000D02*
X19185000Y-7842000D01*
X19222000Y-8145000D02*
X19252000Y-8175000D01*
X19252000Y-8145000D02*
X19222000Y-8175000D01*
X10250000Y-5200000D02*
G75*
G02*
X10150000Y-5200000I-50000J0D01*
G01*
X10150000Y-5200000D02*
G75*
G02*
X10250000Y-5200000I50000J0D01*
G01*
X10250000Y-5454000D02*
G75*
G02*
X10150000Y-5454000I-50000J0D01*
G01*
X10150000Y-5454000D02*
G75*
G02*
X10250000Y-5454000I50000J0D01*
G01*
X10250000Y-5708000D02*
G75*
G02*
X10150000Y-5708000I-50000J0D01*
G01*
X10150000Y-5708000D02*
G75*
G02*
X10250000Y-5708000I50000J0D01*
G01*
X10250000Y-5962000D02*
G75*
G02*
X10150000Y-5962000I-50000J0D01*
G01*
X10150000Y-5962000D02*
G75*
G02*
X10250000Y-5962000I50000J0D01*
G01*
X10250000Y-6216000D02*
G75*
G02*
X10150000Y-6216000I-50000J0D01*
G01*
X10150000Y-6216000D02*
G75*
G02*
X10250000Y-6216000I50000J0D01*
G01*
X10250000Y-6470000D02*
G75*
G02*
X10150000Y-6470000I-50000J0D01*
G01*
X10150000Y-6470000D02*
G75*
G02*
X10250000Y-6470000I50000J0D01*
G01*
X10250000Y-6724000D02*
G75*
G02*
X10150000Y-6724000I-50000J0D01*
G01*
X10150000Y-6724000D02*
G75*
G02*
X10250000Y-6724000I50000J0D01*
G01*
X10250000Y-6978000D02*
G75*
G02*
X10150000Y-6978000I-50000J0D01*
G01*
X10150000Y-6978000D02*
G75*
G02*
X10250000Y-6978000I50000J0D01*
G01*
X10250000Y-7232000D02*
G75*
G02*
X10150000Y-7232000I-50000J0D01*
G01*
X10150000Y-7232000D02*
G75*
G02*
X10250000Y-7232000I50000J0D01*
G01*
X10250000Y-7486000D02*
G75*
G02*
X10150000Y-7486000I-50000J0D01*
G01*
X10150000Y-7486000D02*
G75*
G02*
X10250000Y-7486000I50000J0D01*
G01*
X10250000Y-7740000D02*
G75*
G02*
X10150000Y-7740000I-50000J0D01*
G01*
X10150000Y-7740000D02*
G75*
G02*
X10250000Y-7740000I50000J0D01*
G01*
X10250000Y-7994000D02*
G75*
G02*
X10150000Y-7994000I-50000J0D01*
G01*
X10150000Y-7994000D02*
G75*
G02*
X10250000Y-7994000I50000J0D01*
G01*
X10504000Y-5200000D02*
G75*
G02*
X10404000Y-5200000I-50000J0D01*
G01*
X10404000Y-5200000D02*
G75*
G02*
X10504000Y-5200000I50000J0D01*
G01*
X10504000Y-5454000D02*
G75*
G02*
X10404000Y-5454000I-50000J0D01*
G01*
X10404000Y-5454000D02*
G75*
G02*
X10504000Y-5454000I50000J0D01*
G01*
X10504000Y-5708000D02*
G75*
G02*
X10404000Y-5708000I-50000J0D01*
G01*
X10404000Y-5708000D02*
G75*
G02*
X10504000Y-5708000I50000J0D01*
G01*
X10504000Y-5962000D02*
G75*
G02*
X10404000Y-5962000I-50000J0D01*
G01*
X10404000Y-5962000D02*
G75*
G02*
X10504000Y-5962000I50000J0D01*
G01*
X10504000Y-6216000D02*
G75*
G02*
X10404000Y-6216000I-50000J0D01*
G01*
X10404000Y-6216000D02*
G75*
G02*
X10504000Y-6216000I50000J0D01*
G01*
X10504000Y-6470000D02*
G75*
G02*
X10404000Y-6470000I-50000J0D01*
G01*
X10404000Y-6470000D02*
G75*
G02*
X10504000Y-6470000I50000J0D01*
G01*
X10504000Y-6724000D02*
G75*
G02*
X10404000Y-6724000I-50000J0D01*
G01*
X10404000Y-6724000D02*
G75*
G02*
X10504000Y-6724000I50000J0D01*
G01*
X10504000Y-6978000D02*
G75*
G02*
X10404000Y-6978000I-50000J0D01*
G01*
X10404000Y-6978000D02*
G75*
G02*
X10504000Y-6978000I50000J0D01*
G01*
X10504000Y-7232000D02*
G75*
G02*
X10404000Y-7232000I-50000J0D01*
G01*
X10404000Y-7232000D02*
G75*
G02*
X10504000Y-7232000I50000J0D01*
G01*
X10504000Y-7486000D02*
G75*
G02*
X10404000Y-7486000I-50000J0D01*
G01*
X10404000Y-7486000D02*
G75*
G02*
X10504000Y-7486000I50000J0D01*
G01*
X10504000Y-7740000D02*
G75*
G02*
X10404000Y-7740000I-50000J0D01*
G01*
X10404000Y-7740000D02*
G75*
G02*
X10504000Y-7740000I50000J0D01*
G01*
X10504000Y-7994000D02*
G75*
G02*
X10404000Y-7994000I-50000J0D01*
G01*
X10404000Y-7994000D02*
G75*
G02*
X10504000Y-7994000I50000J0D01*
G01*
D11*
X10258277Y-10313984D02*
X10258277Y-10113984D01*
X10258277Y-10113984D02*
X10305896Y-10113984D01*
X10305896Y-10113984D02*
X10334467Y-10123508D01*
X10334467Y-10123508D02*
X10353515Y-10142555D01*
X10353515Y-10142555D02*
X10363039Y-10161603D01*
X10363039Y-10161603D02*
X10372563Y-10199698D01*
X10372563Y-10199698D02*
X10372563Y-10228270D01*
X10372563Y-10228270D02*
X10363039Y-10266365D01*
X10363039Y-10266365D02*
X10353515Y-10285412D01*
X10353515Y-10285412D02*
X10334467Y-10304460D01*
X10334467Y-10304460D02*
X10305896Y-10313984D01*
X10305896Y-10313984D02*
X10258277Y-10313984D01*
X10458277Y-10313984D02*
X10458277Y-10180650D01*
X10458277Y-10218746D02*
X10467801Y-10199698D01*
X10467801Y-10199698D02*
X10477324Y-10190174D01*
X10477324Y-10190174D02*
X10496372Y-10180650D01*
X10496372Y-10180650D02*
X10515420Y-10180650D01*
X10582086Y-10313984D02*
X10582086Y-10180650D01*
X10582086Y-10113984D02*
X10572563Y-10123508D01*
X10572563Y-10123508D02*
X10582086Y-10133031D01*
X10582086Y-10133031D02*
X10591610Y-10123508D01*
X10591610Y-10123508D02*
X10582086Y-10113984D01*
X10582086Y-10113984D02*
X10582086Y-10133031D01*
X10705896Y-10313984D02*
X10686848Y-10304460D01*
X10686848Y-10304460D02*
X10677324Y-10285412D01*
X10677324Y-10285412D02*
X10677324Y-10113984D01*
X10810658Y-10313984D02*
X10791610Y-10304460D01*
X10791610Y-10304460D02*
X10782086Y-10285412D01*
X10782086Y-10285412D02*
X10782086Y-10113984D01*
X11039229Y-10313984D02*
X11039229Y-10113984D01*
X11039229Y-10113984D02*
X11105896Y-10256841D01*
X11105896Y-10256841D02*
X11172563Y-10113984D01*
X11172563Y-10113984D02*
X11172563Y-10313984D01*
X11353515Y-10313984D02*
X11353515Y-10209222D01*
X11353515Y-10209222D02*
X11343991Y-10190174D01*
X11343991Y-10190174D02*
X11324943Y-10180650D01*
X11324943Y-10180650D02*
X11286848Y-10180650D01*
X11286848Y-10180650D02*
X11267801Y-10190174D01*
X11353515Y-10304460D02*
X11334467Y-10313984D01*
X11334467Y-10313984D02*
X11286848Y-10313984D01*
X11286848Y-10313984D02*
X11267801Y-10304460D01*
X11267801Y-10304460D02*
X11258277Y-10285412D01*
X11258277Y-10285412D02*
X11258277Y-10266365D01*
X11258277Y-10266365D02*
X11267801Y-10247317D01*
X11267801Y-10247317D02*
X11286848Y-10237793D01*
X11286848Y-10237793D02*
X11334467Y-10237793D01*
X11334467Y-10237793D02*
X11353515Y-10228270D01*
X11448753Y-10180650D02*
X11448753Y-10380650D01*
X11448753Y-10190174D02*
X11467801Y-10180650D01*
X11467801Y-10180650D02*
X11505896Y-10180650D01*
X11505896Y-10180650D02*
X11524943Y-10190174D01*
X11524943Y-10190174D02*
X11534467Y-10199698D01*
X11534467Y-10199698D02*
X11543991Y-10218746D01*
X11543991Y-10218746D02*
X11543991Y-10275889D01*
X11543991Y-10275889D02*
X11534467Y-10294936D01*
X11534467Y-10294936D02*
X11524943Y-10304460D01*
X11524943Y-10304460D02*
X11505896Y-10313984D01*
X11505896Y-10313984D02*
X11467801Y-10313984D01*
X11467801Y-10313984D02*
X11448753Y-10304460D01*
X11629705Y-10294936D02*
X11639229Y-10304460D01*
X11639229Y-10304460D02*
X11629705Y-10313984D01*
X11629705Y-10313984D02*
X11620182Y-10304460D01*
X11620182Y-10304460D02*
X11629705Y-10294936D01*
X11629705Y-10294936D02*
X11629705Y-10313984D01*
X11629705Y-10190174D02*
X11639229Y-10199698D01*
X11639229Y-10199698D02*
X11629705Y-10209222D01*
X11629705Y-10209222D02*
X11620182Y-10199698D01*
X11620182Y-10199698D02*
X11629705Y-10190174D01*
X11629705Y-10190174D02*
X11629705Y-10209222D01*
D12*
X9967500Y-10627500D02*
X9997500Y-10657500D01*
X9997500Y-10627500D02*
X9967500Y-10657500D01*
D11*
X10296372Y-10533984D02*
X10315420Y-10533984D01*
X10315420Y-10533984D02*
X10334467Y-10543508D01*
X10334467Y-10543508D02*
X10343991Y-10553031D01*
X10343991Y-10553031D02*
X10353515Y-10572079D01*
X10353515Y-10572079D02*
X10363039Y-10610174D01*
X10363039Y-10610174D02*
X10363039Y-10657793D01*
X10363039Y-10657793D02*
X10353515Y-10695889D01*
X10353515Y-10695889D02*
X10343991Y-10714936D01*
X10343991Y-10714936D02*
X10334467Y-10724460D01*
X10334467Y-10724460D02*
X10315420Y-10733984D01*
X10315420Y-10733984D02*
X10296372Y-10733984D01*
X10296372Y-10733984D02*
X10277324Y-10724460D01*
X10277324Y-10724460D02*
X10267801Y-10714936D01*
X10267801Y-10714936D02*
X10258277Y-10695889D01*
X10258277Y-10695889D02*
X10248753Y-10657793D01*
X10248753Y-10657793D02*
X10248753Y-10610174D01*
X10248753Y-10610174D02*
X10258277Y-10572079D01*
X10258277Y-10572079D02*
X10267801Y-10553031D01*
X10267801Y-10553031D02*
X10277324Y-10543508D01*
X10277324Y-10543508D02*
X10296372Y-10533984D01*
X10448753Y-10714936D02*
X10458277Y-10724460D01*
X10458277Y-10724460D02*
X10448753Y-10733984D01*
X10448753Y-10733984D02*
X10439229Y-10724460D01*
X10439229Y-10724460D02*
X10448753Y-10714936D01*
X10448753Y-10714936D02*
X10448753Y-10733984D01*
X10524944Y-10533984D02*
X10648753Y-10533984D01*
X10648753Y-10533984D02*
X10582086Y-10610174D01*
X10582086Y-10610174D02*
X10610658Y-10610174D01*
X10610658Y-10610174D02*
X10629705Y-10619698D01*
X10629705Y-10619698D02*
X10639229Y-10629222D01*
X10639229Y-10629222D02*
X10648753Y-10648270D01*
X10648753Y-10648270D02*
X10648753Y-10695889D01*
X10648753Y-10695889D02*
X10639229Y-10714936D01*
X10639229Y-10714936D02*
X10629705Y-10724460D01*
X10629705Y-10724460D02*
X10610658Y-10733984D01*
X10610658Y-10733984D02*
X10553515Y-10733984D01*
X10553515Y-10733984D02*
X10534467Y-10724460D01*
X10534467Y-10724460D02*
X10524944Y-10714936D01*
X10772563Y-10533984D02*
X10791610Y-10533984D01*
X10791610Y-10533984D02*
X10810658Y-10543508D01*
X10810658Y-10543508D02*
X10820182Y-10553031D01*
X10820182Y-10553031D02*
X10829705Y-10572079D01*
X10829705Y-10572079D02*
X10839229Y-10610174D01*
X10839229Y-10610174D02*
X10839229Y-10657793D01*
X10839229Y-10657793D02*
X10829705Y-10695889D01*
X10829705Y-10695889D02*
X10820182Y-10714936D01*
X10820182Y-10714936D02*
X10810658Y-10724460D01*
X10810658Y-10724460D02*
X10791610Y-10733984D01*
X10791610Y-10733984D02*
X10772563Y-10733984D01*
X10772563Y-10733984D02*
X10753515Y-10724460D01*
X10753515Y-10724460D02*
X10743991Y-10714936D01*
X10743991Y-10714936D02*
X10734467Y-10695889D01*
X10734467Y-10695889D02*
X10724944Y-10657793D01*
X10724944Y-10657793D02*
X10724944Y-10610174D01*
X10724944Y-10610174D02*
X10734467Y-10572079D01*
X10734467Y-10572079D02*
X10743991Y-10553031D01*
X10743991Y-10553031D02*
X10753515Y-10543508D01*
X10753515Y-10543508D02*
X10772563Y-10533984D01*
X10963039Y-10533984D02*
X10982086Y-10533984D01*
X10982086Y-10533984D02*
X11001134Y-10543508D01*
X11001134Y-10543508D02*
X11010658Y-10553031D01*
X11010658Y-10553031D02*
X11020182Y-10572079D01*
X11020182Y-10572079D02*
X11029705Y-10610174D01*
X11029705Y-10610174D02*
X11029705Y-10657793D01*
X11029705Y-10657793D02*
X11020182Y-10695889D01*
X11020182Y-10695889D02*
X11010658Y-10714936D01*
X11010658Y-10714936D02*
X11001134Y-10724460D01*
X11001134Y-10724460D02*
X10982086Y-10733984D01*
X10982086Y-10733984D02*
X10963039Y-10733984D01*
X10963039Y-10733984D02*
X10943991Y-10724460D01*
X10943991Y-10724460D02*
X10934467Y-10714936D01*
X10934467Y-10714936D02*
X10924944Y-10695889D01*
X10924944Y-10695889D02*
X10915420Y-10657793D01*
X10915420Y-10657793D02*
X10915420Y-10610174D01*
X10915420Y-10610174D02*
X10924944Y-10572079D01*
X10924944Y-10572079D02*
X10934467Y-10553031D01*
X10934467Y-10553031D02*
X10943991Y-10543508D01*
X10943991Y-10543508D02*
X10963039Y-10533984D01*
X11115420Y-10733984D02*
X11115420Y-10600650D01*
X11115420Y-10619698D02*
X11124944Y-10610174D01*
X11124944Y-10610174D02*
X11143991Y-10600650D01*
X11143991Y-10600650D02*
X11172563Y-10600650D01*
X11172563Y-10600650D02*
X11191610Y-10610174D01*
X11191610Y-10610174D02*
X11201134Y-10629222D01*
X11201134Y-10629222D02*
X11201134Y-10733984D01*
X11201134Y-10629222D02*
X11210658Y-10610174D01*
X11210658Y-10610174D02*
X11229705Y-10600650D01*
X11229705Y-10600650D02*
X11258277Y-10600650D01*
X11258277Y-10600650D02*
X11277324Y-10610174D01*
X11277324Y-10610174D02*
X11286848Y-10629222D01*
X11286848Y-10629222D02*
X11286848Y-10733984D01*
X11382086Y-10733984D02*
X11382086Y-10600650D01*
X11382086Y-10619698D02*
X11391610Y-10610174D01*
X11391610Y-10610174D02*
X11410658Y-10600650D01*
X11410658Y-10600650D02*
X11439229Y-10600650D01*
X11439229Y-10600650D02*
X11458277Y-10610174D01*
X11458277Y-10610174D02*
X11467801Y-10629222D01*
X11467801Y-10629222D02*
X11467801Y-10733984D01*
X11467801Y-10629222D02*
X11477324Y-10610174D01*
X11477324Y-10610174D02*
X11496372Y-10600650D01*
X11496372Y-10600650D02*
X11524943Y-10600650D01*
X11524943Y-10600650D02*
X11543991Y-10610174D01*
X11543991Y-10610174D02*
X11553515Y-10629222D01*
X11553515Y-10629222D02*
X11553515Y-10733984D01*
X11943991Y-10524460D02*
X11772563Y-10781603D01*
X12201134Y-10533984D02*
X12220182Y-10533984D01*
X12220182Y-10533984D02*
X12239229Y-10543508D01*
X12239229Y-10543508D02*
X12248753Y-10553031D01*
X12248753Y-10553031D02*
X12258277Y-10572079D01*
X12258277Y-10572079D02*
X12267801Y-10610174D01*
X12267801Y-10610174D02*
X12267801Y-10657793D01*
X12267801Y-10657793D02*
X12258277Y-10695889D01*
X12258277Y-10695889D02*
X12248753Y-10714936D01*
X12248753Y-10714936D02*
X12239229Y-10724460D01*
X12239229Y-10724460D02*
X12220182Y-10733984D01*
X12220182Y-10733984D02*
X12201134Y-10733984D01*
X12201134Y-10733984D02*
X12182086Y-10724460D01*
X12182086Y-10724460D02*
X12172563Y-10714936D01*
X12172563Y-10714936D02*
X12163039Y-10695889D01*
X12163039Y-10695889D02*
X12153515Y-10657793D01*
X12153515Y-10657793D02*
X12153515Y-10610174D01*
X12153515Y-10610174D02*
X12163039Y-10572079D01*
X12163039Y-10572079D02*
X12172563Y-10553031D01*
X12172563Y-10553031D02*
X12182086Y-10543508D01*
X12182086Y-10543508D02*
X12201134Y-10533984D01*
X12353515Y-10714936D02*
X12363039Y-10724460D01*
X12363039Y-10724460D02*
X12353515Y-10733984D01*
X12353515Y-10733984D02*
X12343991Y-10724460D01*
X12343991Y-10724460D02*
X12353515Y-10714936D01*
X12353515Y-10714936D02*
X12353515Y-10733984D01*
X12486848Y-10533984D02*
X12505896Y-10533984D01*
X12505896Y-10533984D02*
X12524944Y-10543508D01*
X12524944Y-10543508D02*
X12534467Y-10553031D01*
X12534467Y-10553031D02*
X12543991Y-10572079D01*
X12543991Y-10572079D02*
X12553515Y-10610174D01*
X12553515Y-10610174D02*
X12553515Y-10657793D01*
X12553515Y-10657793D02*
X12543991Y-10695889D01*
X12543991Y-10695889D02*
X12534467Y-10714936D01*
X12534467Y-10714936D02*
X12524944Y-10724460D01*
X12524944Y-10724460D02*
X12505896Y-10733984D01*
X12505896Y-10733984D02*
X12486848Y-10733984D01*
X12486848Y-10733984D02*
X12467801Y-10724460D01*
X12467801Y-10724460D02*
X12458277Y-10714936D01*
X12458277Y-10714936D02*
X12448753Y-10695889D01*
X12448753Y-10695889D02*
X12439229Y-10657793D01*
X12439229Y-10657793D02*
X12439229Y-10610174D01*
X12439229Y-10610174D02*
X12448753Y-10572079D01*
X12448753Y-10572079D02*
X12458277Y-10553031D01*
X12458277Y-10553031D02*
X12467801Y-10543508D01*
X12467801Y-10543508D02*
X12486848Y-10533984D01*
X12743991Y-10733984D02*
X12629706Y-10733984D01*
X12686848Y-10733984D02*
X12686848Y-10533984D01*
X12686848Y-10533984D02*
X12667801Y-10562555D01*
X12667801Y-10562555D02*
X12648753Y-10581603D01*
X12648753Y-10581603D02*
X12629706Y-10591127D01*
X12934467Y-10733984D02*
X12820182Y-10733984D01*
X12877325Y-10733984D02*
X12877325Y-10533984D01*
X12877325Y-10533984D02*
X12858277Y-10562555D01*
X12858277Y-10562555D02*
X12839229Y-10581603D01*
X12839229Y-10581603D02*
X12820182Y-10591127D01*
X13048753Y-10619698D02*
X13029706Y-10610174D01*
X13029706Y-10610174D02*
X13020182Y-10600650D01*
X13020182Y-10600650D02*
X13010658Y-10581603D01*
X13010658Y-10581603D02*
X13010658Y-10572079D01*
X13010658Y-10572079D02*
X13020182Y-10553031D01*
X13020182Y-10553031D02*
X13029706Y-10543508D01*
X13029706Y-10543508D02*
X13048753Y-10533984D01*
X13048753Y-10533984D02*
X13086848Y-10533984D01*
X13086848Y-10533984D02*
X13105896Y-10543508D01*
X13105896Y-10543508D02*
X13115420Y-10553031D01*
X13115420Y-10553031D02*
X13124944Y-10572079D01*
X13124944Y-10572079D02*
X13124944Y-10581603D01*
X13124944Y-10581603D02*
X13115420Y-10600650D01*
X13115420Y-10600650D02*
X13105896Y-10610174D01*
X13105896Y-10610174D02*
X13086848Y-10619698D01*
X13086848Y-10619698D02*
X13048753Y-10619698D01*
X13048753Y-10619698D02*
X13029706Y-10629222D01*
X13029706Y-10629222D02*
X13020182Y-10638746D01*
X13020182Y-10638746D02*
X13010658Y-10657793D01*
X13010658Y-10657793D02*
X13010658Y-10695889D01*
X13010658Y-10695889D02*
X13020182Y-10714936D01*
X13020182Y-10714936D02*
X13029706Y-10724460D01*
X13029706Y-10724460D02*
X13048753Y-10733984D01*
X13048753Y-10733984D02*
X13086848Y-10733984D01*
X13086848Y-10733984D02*
X13105896Y-10724460D01*
X13105896Y-10724460D02*
X13115420Y-10714936D01*
X13115420Y-10714936D02*
X13124944Y-10695889D01*
X13124944Y-10695889D02*
X13124944Y-10657793D01*
X13124944Y-10657793D02*
X13115420Y-10638746D01*
X13115420Y-10638746D02*
X13105896Y-10629222D01*
X13105896Y-10629222D02*
X13086848Y-10619698D01*
X13201134Y-10533984D02*
X13201134Y-10572079D01*
X13277325Y-10533984D02*
X13277325Y-10572079D01*
X13572563Y-10810174D02*
X13563039Y-10800650D01*
X13563039Y-10800650D02*
X13543991Y-10772079D01*
X13543991Y-10772079D02*
X13534468Y-10753031D01*
X13534468Y-10753031D02*
X13524944Y-10724460D01*
X13524944Y-10724460D02*
X13515420Y-10676841D01*
X13515420Y-10676841D02*
X13515420Y-10638746D01*
X13515420Y-10638746D02*
X13524944Y-10591127D01*
X13524944Y-10591127D02*
X13534468Y-10562555D01*
X13534468Y-10562555D02*
X13543991Y-10543508D01*
X13543991Y-10543508D02*
X13563039Y-10514936D01*
X13563039Y-10514936D02*
X13572563Y-10505412D01*
X13639229Y-10553031D02*
X13648753Y-10543508D01*
X13648753Y-10543508D02*
X13667801Y-10533984D01*
X13667801Y-10533984D02*
X13715420Y-10533984D01*
X13715420Y-10533984D02*
X13734468Y-10543508D01*
X13734468Y-10543508D02*
X13743991Y-10553031D01*
X13743991Y-10553031D02*
X13753515Y-10572079D01*
X13753515Y-10572079D02*
X13753515Y-10591127D01*
X13753515Y-10591127D02*
X13743991Y-10619698D01*
X13743991Y-10619698D02*
X13629706Y-10733984D01*
X13629706Y-10733984D02*
X13753515Y-10733984D01*
X13848753Y-10733984D02*
X13886848Y-10733984D01*
X13886848Y-10733984D02*
X13905896Y-10724460D01*
X13905896Y-10724460D02*
X13915420Y-10714936D01*
X13915420Y-10714936D02*
X13934468Y-10686365D01*
X13934468Y-10686365D02*
X13943991Y-10648270D01*
X13943991Y-10648270D02*
X13943991Y-10572079D01*
X13943991Y-10572079D02*
X13934468Y-10553031D01*
X13934468Y-10553031D02*
X13924944Y-10543508D01*
X13924944Y-10543508D02*
X13905896Y-10533984D01*
X13905896Y-10533984D02*
X13867801Y-10533984D01*
X13867801Y-10533984D02*
X13848753Y-10543508D01*
X13848753Y-10543508D02*
X13839229Y-10553031D01*
X13839229Y-10553031D02*
X13829706Y-10572079D01*
X13829706Y-10572079D02*
X13829706Y-10619698D01*
X13829706Y-10619698D02*
X13839229Y-10638746D01*
X13839229Y-10638746D02*
X13848753Y-10648270D01*
X13848753Y-10648270D02*
X13867801Y-10657793D01*
X13867801Y-10657793D02*
X13905896Y-10657793D01*
X13905896Y-10657793D02*
X13924944Y-10648270D01*
X13924944Y-10648270D02*
X13934468Y-10638746D01*
X13934468Y-10638746D02*
X13943991Y-10619698D01*
X14182087Y-10733984D02*
X14182087Y-10533984D01*
X14267801Y-10733984D02*
X14267801Y-10629222D01*
X14267801Y-10629222D02*
X14258277Y-10610174D01*
X14258277Y-10610174D02*
X14239230Y-10600650D01*
X14239230Y-10600650D02*
X14210658Y-10600650D01*
X14210658Y-10600650D02*
X14191610Y-10610174D01*
X14191610Y-10610174D02*
X14182087Y-10619698D01*
X14391610Y-10733984D02*
X14372563Y-10724460D01*
X14372563Y-10724460D02*
X14363039Y-10714936D01*
X14363039Y-10714936D02*
X14353515Y-10695889D01*
X14353515Y-10695889D02*
X14353515Y-10638746D01*
X14353515Y-10638746D02*
X14363039Y-10619698D01*
X14363039Y-10619698D02*
X14372563Y-10610174D01*
X14372563Y-10610174D02*
X14391610Y-10600650D01*
X14391610Y-10600650D02*
X14420182Y-10600650D01*
X14420182Y-10600650D02*
X14439230Y-10610174D01*
X14439230Y-10610174D02*
X14448753Y-10619698D01*
X14448753Y-10619698D02*
X14458277Y-10638746D01*
X14458277Y-10638746D02*
X14458277Y-10695889D01*
X14458277Y-10695889D02*
X14448753Y-10714936D01*
X14448753Y-10714936D02*
X14439230Y-10724460D01*
X14439230Y-10724460D02*
X14420182Y-10733984D01*
X14420182Y-10733984D02*
X14391610Y-10733984D01*
X14572563Y-10733984D02*
X14553515Y-10724460D01*
X14553515Y-10724460D02*
X14543991Y-10705412D01*
X14543991Y-10705412D02*
X14543991Y-10533984D01*
X14724944Y-10724460D02*
X14705896Y-10733984D01*
X14705896Y-10733984D02*
X14667801Y-10733984D01*
X14667801Y-10733984D02*
X14648753Y-10724460D01*
X14648753Y-10724460D02*
X14639230Y-10705412D01*
X14639230Y-10705412D02*
X14639230Y-10629222D01*
X14639230Y-10629222D02*
X14648753Y-10610174D01*
X14648753Y-10610174D02*
X14667801Y-10600650D01*
X14667801Y-10600650D02*
X14705896Y-10600650D01*
X14705896Y-10600650D02*
X14724944Y-10610174D01*
X14724944Y-10610174D02*
X14734468Y-10629222D01*
X14734468Y-10629222D02*
X14734468Y-10648270D01*
X14734468Y-10648270D02*
X14639230Y-10667317D01*
X14810658Y-10724460D02*
X14829706Y-10733984D01*
X14829706Y-10733984D02*
X14867801Y-10733984D01*
X14867801Y-10733984D02*
X14886849Y-10724460D01*
X14886849Y-10724460D02*
X14896372Y-10705412D01*
X14896372Y-10705412D02*
X14896372Y-10695889D01*
X14896372Y-10695889D02*
X14886849Y-10676841D01*
X14886849Y-10676841D02*
X14867801Y-10667317D01*
X14867801Y-10667317D02*
X14839230Y-10667317D01*
X14839230Y-10667317D02*
X14820182Y-10657793D01*
X14820182Y-10657793D02*
X14810658Y-10638746D01*
X14810658Y-10638746D02*
X14810658Y-10629222D01*
X14810658Y-10629222D02*
X14820182Y-10610174D01*
X14820182Y-10610174D02*
X14839230Y-10600650D01*
X14839230Y-10600650D02*
X14867801Y-10600650D01*
X14867801Y-10600650D02*
X14886849Y-10610174D01*
X14963039Y-10810174D02*
X14972563Y-10800650D01*
X14972563Y-10800650D02*
X14991611Y-10772079D01*
X14991611Y-10772079D02*
X15001134Y-10753031D01*
X15001134Y-10753031D02*
X15010658Y-10724460D01*
X15010658Y-10724460D02*
X15020182Y-10676841D01*
X15020182Y-10676841D02*
X15020182Y-10638746D01*
X15020182Y-10638746D02*
X15010658Y-10591127D01*
X15010658Y-10591127D02*
X15001134Y-10562555D01*
X15001134Y-10562555D02*
X14991611Y-10543508D01*
X14991611Y-10543508D02*
X14972563Y-10514936D01*
X14972563Y-10514936D02*
X14963039Y-10505412D01*
D12*
X9997500Y-10906500D02*
G75*
G02*
X9897500Y-10906500I-50000J0D01*
G01*
X9897500Y-10906500D02*
G75*
G02*
X9997500Y-10906500I50000J0D01*
G01*
D11*
X10363039Y-10997984D02*
X10248753Y-10997984D01*
X10305896Y-10997984D02*
X10305896Y-10797984D01*
X10305896Y-10797984D02*
X10286848Y-10826555D01*
X10286848Y-10826555D02*
X10267801Y-10845603D01*
X10267801Y-10845603D02*
X10248753Y-10855127D01*
X10448753Y-10978936D02*
X10458277Y-10988460D01*
X10458277Y-10988460D02*
X10448753Y-10997984D01*
X10448753Y-10997984D02*
X10439229Y-10988460D01*
X10439229Y-10988460D02*
X10448753Y-10978936D01*
X10448753Y-10978936D02*
X10448753Y-10997984D01*
X10582086Y-10797984D02*
X10601134Y-10797984D01*
X10601134Y-10797984D02*
X10620182Y-10807508D01*
X10620182Y-10807508D02*
X10629705Y-10817031D01*
X10629705Y-10817031D02*
X10639229Y-10836079D01*
X10639229Y-10836079D02*
X10648753Y-10874174D01*
X10648753Y-10874174D02*
X10648753Y-10921793D01*
X10648753Y-10921793D02*
X10639229Y-10959889D01*
X10639229Y-10959889D02*
X10629705Y-10978936D01*
X10629705Y-10978936D02*
X10620182Y-10988460D01*
X10620182Y-10988460D02*
X10601134Y-10997984D01*
X10601134Y-10997984D02*
X10582086Y-10997984D01*
X10582086Y-10997984D02*
X10563039Y-10988460D01*
X10563039Y-10988460D02*
X10553515Y-10978936D01*
X10553515Y-10978936D02*
X10543991Y-10959889D01*
X10543991Y-10959889D02*
X10534467Y-10921793D01*
X10534467Y-10921793D02*
X10534467Y-10874174D01*
X10534467Y-10874174D02*
X10543991Y-10836079D01*
X10543991Y-10836079D02*
X10553515Y-10817031D01*
X10553515Y-10817031D02*
X10563039Y-10807508D01*
X10563039Y-10807508D02*
X10582086Y-10797984D01*
X10772563Y-10797984D02*
X10791610Y-10797984D01*
X10791610Y-10797984D02*
X10810658Y-10807508D01*
X10810658Y-10807508D02*
X10820182Y-10817031D01*
X10820182Y-10817031D02*
X10829705Y-10836079D01*
X10829705Y-10836079D02*
X10839229Y-10874174D01*
X10839229Y-10874174D02*
X10839229Y-10921793D01*
X10839229Y-10921793D02*
X10829705Y-10959889D01*
X10829705Y-10959889D02*
X10820182Y-10978936D01*
X10820182Y-10978936D02*
X10810658Y-10988460D01*
X10810658Y-10988460D02*
X10791610Y-10997984D01*
X10791610Y-10997984D02*
X10772563Y-10997984D01*
X10772563Y-10997984D02*
X10753515Y-10988460D01*
X10753515Y-10988460D02*
X10743991Y-10978936D01*
X10743991Y-10978936D02*
X10734467Y-10959889D01*
X10734467Y-10959889D02*
X10724944Y-10921793D01*
X10724944Y-10921793D02*
X10724944Y-10874174D01*
X10724944Y-10874174D02*
X10734467Y-10836079D01*
X10734467Y-10836079D02*
X10743991Y-10817031D01*
X10743991Y-10817031D02*
X10753515Y-10807508D01*
X10753515Y-10807508D02*
X10772563Y-10797984D01*
X10963039Y-10797984D02*
X10982086Y-10797984D01*
X10982086Y-10797984D02*
X11001134Y-10807508D01*
X11001134Y-10807508D02*
X11010658Y-10817031D01*
X11010658Y-10817031D02*
X11020182Y-10836079D01*
X11020182Y-10836079D02*
X11029705Y-10874174D01*
X11029705Y-10874174D02*
X11029705Y-10921793D01*
X11029705Y-10921793D02*
X11020182Y-10959889D01*
X11020182Y-10959889D02*
X11010658Y-10978936D01*
X11010658Y-10978936D02*
X11001134Y-10988460D01*
X11001134Y-10988460D02*
X10982086Y-10997984D01*
X10982086Y-10997984D02*
X10963039Y-10997984D01*
X10963039Y-10997984D02*
X10943991Y-10988460D01*
X10943991Y-10988460D02*
X10934467Y-10978936D01*
X10934467Y-10978936D02*
X10924944Y-10959889D01*
X10924944Y-10959889D02*
X10915420Y-10921793D01*
X10915420Y-10921793D02*
X10915420Y-10874174D01*
X10915420Y-10874174D02*
X10924944Y-10836079D01*
X10924944Y-10836079D02*
X10934467Y-10817031D01*
X10934467Y-10817031D02*
X10943991Y-10807508D01*
X10943991Y-10807508D02*
X10963039Y-10797984D01*
X11115420Y-10997984D02*
X11115420Y-10864650D01*
X11115420Y-10883698D02*
X11124944Y-10874174D01*
X11124944Y-10874174D02*
X11143991Y-10864650D01*
X11143991Y-10864650D02*
X11172563Y-10864650D01*
X11172563Y-10864650D02*
X11191610Y-10874174D01*
X11191610Y-10874174D02*
X11201134Y-10893222D01*
X11201134Y-10893222D02*
X11201134Y-10997984D01*
X11201134Y-10893222D02*
X11210658Y-10874174D01*
X11210658Y-10874174D02*
X11229705Y-10864650D01*
X11229705Y-10864650D02*
X11258277Y-10864650D01*
X11258277Y-10864650D02*
X11277324Y-10874174D01*
X11277324Y-10874174D02*
X11286848Y-10893222D01*
X11286848Y-10893222D02*
X11286848Y-10997984D01*
X11382086Y-10997984D02*
X11382086Y-10864650D01*
X11382086Y-10883698D02*
X11391610Y-10874174D01*
X11391610Y-10874174D02*
X11410658Y-10864650D01*
X11410658Y-10864650D02*
X11439229Y-10864650D01*
X11439229Y-10864650D02*
X11458277Y-10874174D01*
X11458277Y-10874174D02*
X11467801Y-10893222D01*
X11467801Y-10893222D02*
X11467801Y-10997984D01*
X11467801Y-10893222D02*
X11477324Y-10874174D01*
X11477324Y-10874174D02*
X11496372Y-10864650D01*
X11496372Y-10864650D02*
X11524943Y-10864650D01*
X11524943Y-10864650D02*
X11543991Y-10874174D01*
X11543991Y-10874174D02*
X11553515Y-10893222D01*
X11553515Y-10893222D02*
X11553515Y-10997984D01*
X11943991Y-10788460D02*
X11772563Y-11045603D01*
X12201134Y-10797984D02*
X12220182Y-10797984D01*
X12220182Y-10797984D02*
X12239229Y-10807508D01*
X12239229Y-10807508D02*
X12248753Y-10817031D01*
X12248753Y-10817031D02*
X12258277Y-10836079D01*
X12258277Y-10836079D02*
X12267801Y-10874174D01*
X12267801Y-10874174D02*
X12267801Y-10921793D01*
X12267801Y-10921793D02*
X12258277Y-10959889D01*
X12258277Y-10959889D02*
X12248753Y-10978936D01*
X12248753Y-10978936D02*
X12239229Y-10988460D01*
X12239229Y-10988460D02*
X12220182Y-10997984D01*
X12220182Y-10997984D02*
X12201134Y-10997984D01*
X12201134Y-10997984D02*
X12182086Y-10988460D01*
X12182086Y-10988460D02*
X12172563Y-10978936D01*
X12172563Y-10978936D02*
X12163039Y-10959889D01*
X12163039Y-10959889D02*
X12153515Y-10921793D01*
X12153515Y-10921793D02*
X12153515Y-10874174D01*
X12153515Y-10874174D02*
X12163039Y-10836079D01*
X12163039Y-10836079D02*
X12172563Y-10817031D01*
X12172563Y-10817031D02*
X12182086Y-10807508D01*
X12182086Y-10807508D02*
X12201134Y-10797984D01*
X12353515Y-10978936D02*
X12363039Y-10988460D01*
X12363039Y-10988460D02*
X12353515Y-10997984D01*
X12353515Y-10997984D02*
X12343991Y-10988460D01*
X12343991Y-10988460D02*
X12353515Y-10978936D01*
X12353515Y-10978936D02*
X12353515Y-10997984D01*
X12486848Y-10797984D02*
X12505896Y-10797984D01*
X12505896Y-10797984D02*
X12524944Y-10807508D01*
X12524944Y-10807508D02*
X12534467Y-10817031D01*
X12534467Y-10817031D02*
X12543991Y-10836079D01*
X12543991Y-10836079D02*
X12553515Y-10874174D01*
X12553515Y-10874174D02*
X12553515Y-10921793D01*
X12553515Y-10921793D02*
X12543991Y-10959889D01*
X12543991Y-10959889D02*
X12534467Y-10978936D01*
X12534467Y-10978936D02*
X12524944Y-10988460D01*
X12524944Y-10988460D02*
X12505896Y-10997984D01*
X12505896Y-10997984D02*
X12486848Y-10997984D01*
X12486848Y-10997984D02*
X12467801Y-10988460D01*
X12467801Y-10988460D02*
X12458277Y-10978936D01*
X12458277Y-10978936D02*
X12448753Y-10959889D01*
X12448753Y-10959889D02*
X12439229Y-10921793D01*
X12439229Y-10921793D02*
X12439229Y-10874174D01*
X12439229Y-10874174D02*
X12448753Y-10836079D01*
X12448753Y-10836079D02*
X12458277Y-10817031D01*
X12458277Y-10817031D02*
X12467801Y-10807508D01*
X12467801Y-10807508D02*
X12486848Y-10797984D01*
X12620182Y-10797984D02*
X12743991Y-10797984D01*
X12743991Y-10797984D02*
X12677325Y-10874174D01*
X12677325Y-10874174D02*
X12705896Y-10874174D01*
X12705896Y-10874174D02*
X12724944Y-10883698D01*
X12724944Y-10883698D02*
X12734467Y-10893222D01*
X12734467Y-10893222D02*
X12743991Y-10912270D01*
X12743991Y-10912270D02*
X12743991Y-10959889D01*
X12743991Y-10959889D02*
X12734467Y-10978936D01*
X12734467Y-10978936D02*
X12724944Y-10988460D01*
X12724944Y-10988460D02*
X12705896Y-10997984D01*
X12705896Y-10997984D02*
X12648753Y-10997984D01*
X12648753Y-10997984D02*
X12629706Y-10988460D01*
X12629706Y-10988460D02*
X12620182Y-10978936D01*
X12839229Y-10997984D02*
X12877325Y-10997984D01*
X12877325Y-10997984D02*
X12896372Y-10988460D01*
X12896372Y-10988460D02*
X12905896Y-10978936D01*
X12905896Y-10978936D02*
X12924944Y-10950365D01*
X12924944Y-10950365D02*
X12934467Y-10912270D01*
X12934467Y-10912270D02*
X12934467Y-10836079D01*
X12934467Y-10836079D02*
X12924944Y-10817031D01*
X12924944Y-10817031D02*
X12915420Y-10807508D01*
X12915420Y-10807508D02*
X12896372Y-10797984D01*
X12896372Y-10797984D02*
X12858277Y-10797984D01*
X12858277Y-10797984D02*
X12839229Y-10807508D01*
X12839229Y-10807508D02*
X12829706Y-10817031D01*
X12829706Y-10817031D02*
X12820182Y-10836079D01*
X12820182Y-10836079D02*
X12820182Y-10883698D01*
X12820182Y-10883698D02*
X12829706Y-10902746D01*
X12829706Y-10902746D02*
X12839229Y-10912270D01*
X12839229Y-10912270D02*
X12858277Y-10921793D01*
X12858277Y-10921793D02*
X12896372Y-10921793D01*
X12896372Y-10921793D02*
X12915420Y-10912270D01*
X12915420Y-10912270D02*
X12924944Y-10902746D01*
X12924944Y-10902746D02*
X12934467Y-10883698D01*
X13105896Y-10864650D02*
X13105896Y-10997984D01*
X13058277Y-10788460D02*
X13010658Y-10931317D01*
X13010658Y-10931317D02*
X13134467Y-10931317D01*
X13201134Y-10797984D02*
X13201134Y-10836079D01*
X13277325Y-10797984D02*
X13277325Y-10836079D01*
X13572563Y-11074174D02*
X13563039Y-11064650D01*
X13563039Y-11064650D02*
X13543991Y-11036079D01*
X13543991Y-11036079D02*
X13534468Y-11017031D01*
X13534468Y-11017031D02*
X13524944Y-10988460D01*
X13524944Y-10988460D02*
X13515420Y-10940841D01*
X13515420Y-10940841D02*
X13515420Y-10902746D01*
X13515420Y-10902746D02*
X13524944Y-10855127D01*
X13524944Y-10855127D02*
X13534468Y-10826555D01*
X13534468Y-10826555D02*
X13543991Y-10807508D01*
X13543991Y-10807508D02*
X13563039Y-10778936D01*
X13563039Y-10778936D02*
X13572563Y-10769412D01*
X13639229Y-10817031D02*
X13648753Y-10807508D01*
X13648753Y-10807508D02*
X13667801Y-10797984D01*
X13667801Y-10797984D02*
X13715420Y-10797984D01*
X13715420Y-10797984D02*
X13734468Y-10807508D01*
X13734468Y-10807508D02*
X13743991Y-10817031D01*
X13743991Y-10817031D02*
X13753515Y-10836079D01*
X13753515Y-10836079D02*
X13753515Y-10855127D01*
X13753515Y-10855127D02*
X13743991Y-10883698D01*
X13743991Y-10883698D02*
X13629706Y-10997984D01*
X13629706Y-10997984D02*
X13753515Y-10997984D01*
X13924944Y-10864650D02*
X13924944Y-10997984D01*
X13877325Y-10788460D02*
X13829706Y-10931317D01*
X13829706Y-10931317D02*
X13953515Y-10931317D01*
X14182087Y-10997984D02*
X14182087Y-10797984D01*
X14267801Y-10997984D02*
X14267801Y-10893222D01*
X14267801Y-10893222D02*
X14258277Y-10874174D01*
X14258277Y-10874174D02*
X14239230Y-10864650D01*
X14239230Y-10864650D02*
X14210658Y-10864650D01*
X14210658Y-10864650D02*
X14191610Y-10874174D01*
X14191610Y-10874174D02*
X14182087Y-10883698D01*
X14391610Y-10997984D02*
X14372563Y-10988460D01*
X14372563Y-10988460D02*
X14363039Y-10978936D01*
X14363039Y-10978936D02*
X14353515Y-10959889D01*
X14353515Y-10959889D02*
X14353515Y-10902746D01*
X14353515Y-10902746D02*
X14363039Y-10883698D01*
X14363039Y-10883698D02*
X14372563Y-10874174D01*
X14372563Y-10874174D02*
X14391610Y-10864650D01*
X14391610Y-10864650D02*
X14420182Y-10864650D01*
X14420182Y-10864650D02*
X14439230Y-10874174D01*
X14439230Y-10874174D02*
X14448753Y-10883698D01*
X14448753Y-10883698D02*
X14458277Y-10902746D01*
X14458277Y-10902746D02*
X14458277Y-10959889D01*
X14458277Y-10959889D02*
X14448753Y-10978936D01*
X14448753Y-10978936D02*
X14439230Y-10988460D01*
X14439230Y-10988460D02*
X14420182Y-10997984D01*
X14420182Y-10997984D02*
X14391610Y-10997984D01*
X14572563Y-10997984D02*
X14553515Y-10988460D01*
X14553515Y-10988460D02*
X14543991Y-10969412D01*
X14543991Y-10969412D02*
X14543991Y-10797984D01*
X14724944Y-10988460D02*
X14705896Y-10997984D01*
X14705896Y-10997984D02*
X14667801Y-10997984D01*
X14667801Y-10997984D02*
X14648753Y-10988460D01*
X14648753Y-10988460D02*
X14639230Y-10969412D01*
X14639230Y-10969412D02*
X14639230Y-10893222D01*
X14639230Y-10893222D02*
X14648753Y-10874174D01*
X14648753Y-10874174D02*
X14667801Y-10864650D01*
X14667801Y-10864650D02*
X14705896Y-10864650D01*
X14705896Y-10864650D02*
X14724944Y-10874174D01*
X14724944Y-10874174D02*
X14734468Y-10893222D01*
X14734468Y-10893222D02*
X14734468Y-10912270D01*
X14734468Y-10912270D02*
X14639230Y-10931317D01*
X14810658Y-10988460D02*
X14829706Y-10997984D01*
X14829706Y-10997984D02*
X14867801Y-10997984D01*
X14867801Y-10997984D02*
X14886849Y-10988460D01*
X14886849Y-10988460D02*
X14896372Y-10969412D01*
X14896372Y-10969412D02*
X14896372Y-10959889D01*
X14896372Y-10959889D02*
X14886849Y-10940841D01*
X14886849Y-10940841D02*
X14867801Y-10931317D01*
X14867801Y-10931317D02*
X14839230Y-10931317D01*
X14839230Y-10931317D02*
X14820182Y-10921793D01*
X14820182Y-10921793D02*
X14810658Y-10902746D01*
X14810658Y-10902746D02*
X14810658Y-10893222D01*
X14810658Y-10893222D02*
X14820182Y-10874174D01*
X14820182Y-10874174D02*
X14839230Y-10864650D01*
X14839230Y-10864650D02*
X14867801Y-10864650D01*
X14867801Y-10864650D02*
X14886849Y-10874174D01*
X14963039Y-11074174D02*
X14972563Y-11064650D01*
X14972563Y-11064650D02*
X14991611Y-11036079D01*
X14991611Y-11036079D02*
X15001134Y-11017031D01*
X15001134Y-11017031D02*
X15010658Y-10988460D01*
X15010658Y-10988460D02*
X15020182Y-10940841D01*
X15020182Y-10940841D02*
X15020182Y-10902746D01*
X15020182Y-10902746D02*
X15010658Y-10855127D01*
X15010658Y-10855127D02*
X15001134Y-10826555D01*
X15001134Y-10826555D02*
X14991611Y-10807508D01*
X14991611Y-10807508D02*
X14972563Y-10778936D01*
X14972563Y-10778936D02*
X14963039Y-10769412D01*
M02*
