%TF.GenerationSoftware,KiCad,Pcbnew,8.0.9-8.0.9-0~ubuntu24.04.1*%
%TF.CreationDate,2025-06-12T22:50:13-04:00*%
%TF.ProjectId,CoilTest,436f696c-5465-4737-942e-6b696361645f,0.0*%
%TF.SameCoordinates,Original*%
%TF.FileFunction,Drillmap*%
%TF.FilePolarity,Positive*%
%FSLAX45Y45*%
G04 Gerber Fmt 4.5, Leading zero omitted, Abs format (unit mm)*
G04 Created by KiCad (PCBNEW 8.0.9-8.0.9-0~ubuntu24.04.1) date 2025-06-12 22:50:13*
%MOMM*%
%LPD*%
G01*
G04 APERTURE LIST*
%ADD10C,0.050000*%
%ADD11C,0.200000*%
G04 APERTURE END LIST*
D10*
X16885000Y-8485000D02*
G75*
G02*
X16315000Y-8485000I-285000J0D01*
G01*
X16315000Y-8485000D02*
G75*
G02*
X16885000Y-8485000I285000J0D01*
G01*
X14685000Y-8485000D02*
G75*
G02*
X14115000Y-8485000I-285000J0D01*
G01*
X14115000Y-8485000D02*
G75*
G02*
X14685000Y-8485000I285000J0D01*
G01*
X19285000Y-6220000D02*
G75*
G02*
X18715000Y-6220000I-285000J0D01*
G01*
X18715000Y-6220000D02*
G75*
G02*
X19285000Y-6220000I285000J0D01*
G01*
X18185000Y-8485000D02*
G75*
G02*
X17615000Y-8485000I-285000J0D01*
G01*
X17615000Y-8485000D02*
G75*
G02*
X18185000Y-8485000I285000J0D01*
G01*
X17585000Y-6220000D02*
G75*
G02*
X17015000Y-6220000I-285000J0D01*
G01*
X17015000Y-6220000D02*
G75*
G02*
X17585000Y-6220000I285000J0D01*
G01*
X12485000Y-8485000D02*
G75*
G02*
X11915000Y-8485000I-285000J0D01*
G01*
X11915000Y-8485000D02*
G75*
G02*
X12485000Y-8485000I285000J0D01*
G01*
X14182548Y-6217790D02*
G75*
G02*
X13612548Y-6217790I-285000J0D01*
G01*
X13612548Y-6217790D02*
G75*
G02*
X14182548Y-6217790I285000J0D01*
G01*
X15883161Y-6218272D02*
G75*
G02*
X15313161Y-6218272I-285000J0D01*
G01*
X15313161Y-6218272D02*
G75*
G02*
X15883161Y-6218272I285000J0D01*
G01*
X19485000Y-8485000D02*
G75*
G02*
X18915000Y-8485000I-285000J0D01*
G01*
X18915000Y-8485000D02*
G75*
G02*
X19485000Y-8485000I285000J0D01*
G01*
X12483000Y-6218000D02*
G75*
G02*
X11913000Y-6218000I-285000J0D01*
G01*
X11913000Y-6218000D02*
G75*
G02*
X12483000Y-6218000I285000J0D01*
G01*
X20000000Y-10000000D02*
X10000000Y-10000000D01*
X10000000Y-5000000D01*
X20000000Y-5000000D01*
X20000000Y-10000000D01*
X13585000Y-8485000D02*
G75*
G02*
X13015000Y-8485000I-285000J0D01*
G01*
X13015000Y-8485000D02*
G75*
G02*
X13585000Y-8485000I285000J0D01*
G01*
D11*
X10258277Y-10313984D02*
X10258277Y-10113984D01*
X10258277Y-10113984D02*
X10305896Y-10113984D01*
X10305896Y-10113984D02*
X10334467Y-10123508D01*
X10334467Y-10123508D02*
X10353515Y-10142555D01*
X10353515Y-10142555D02*
X10363039Y-10161603D01*
X10363039Y-10161603D02*
X10372563Y-10199698D01*
X10372563Y-10199698D02*
X10372563Y-10228270D01*
X10372563Y-10228270D02*
X10363039Y-10266365D01*
X10363039Y-10266365D02*
X10353515Y-10285412D01*
X10353515Y-10285412D02*
X10334467Y-10304460D01*
X10334467Y-10304460D02*
X10305896Y-10313984D01*
X10305896Y-10313984D02*
X10258277Y-10313984D01*
X10458277Y-10313984D02*
X10458277Y-10180650D01*
X10458277Y-10218746D02*
X10467801Y-10199698D01*
X10467801Y-10199698D02*
X10477324Y-10190174D01*
X10477324Y-10190174D02*
X10496372Y-10180650D01*
X10496372Y-10180650D02*
X10515420Y-10180650D01*
X10582086Y-10313984D02*
X10582086Y-10180650D01*
X10582086Y-10113984D02*
X10572563Y-10123508D01*
X10572563Y-10123508D02*
X10582086Y-10133031D01*
X10582086Y-10133031D02*
X10591610Y-10123508D01*
X10591610Y-10123508D02*
X10582086Y-10113984D01*
X10582086Y-10113984D02*
X10582086Y-10133031D01*
X10705896Y-10313984D02*
X10686848Y-10304460D01*
X10686848Y-10304460D02*
X10677324Y-10285412D01*
X10677324Y-10285412D02*
X10677324Y-10113984D01*
X10810658Y-10313984D02*
X10791610Y-10304460D01*
X10791610Y-10304460D02*
X10782086Y-10285412D01*
X10782086Y-10285412D02*
X10782086Y-10113984D01*
X11039229Y-10313984D02*
X11039229Y-10113984D01*
X11039229Y-10113984D02*
X11105896Y-10256841D01*
X11105896Y-10256841D02*
X11172563Y-10113984D01*
X11172563Y-10113984D02*
X11172563Y-10313984D01*
X11353515Y-10313984D02*
X11353515Y-10209222D01*
X11353515Y-10209222D02*
X11343991Y-10190174D01*
X11343991Y-10190174D02*
X11324943Y-10180650D01*
X11324943Y-10180650D02*
X11286848Y-10180650D01*
X11286848Y-10180650D02*
X11267801Y-10190174D01*
X11353515Y-10304460D02*
X11334467Y-10313984D01*
X11334467Y-10313984D02*
X11286848Y-10313984D01*
X11286848Y-10313984D02*
X11267801Y-10304460D01*
X11267801Y-10304460D02*
X11258277Y-10285412D01*
X11258277Y-10285412D02*
X11258277Y-10266365D01*
X11258277Y-10266365D02*
X11267801Y-10247317D01*
X11267801Y-10247317D02*
X11286848Y-10237793D01*
X11286848Y-10237793D02*
X11334467Y-10237793D01*
X11334467Y-10237793D02*
X11353515Y-10228270D01*
X11448753Y-10180650D02*
X11448753Y-10380650D01*
X11448753Y-10190174D02*
X11467801Y-10180650D01*
X11467801Y-10180650D02*
X11505896Y-10180650D01*
X11505896Y-10180650D02*
X11524943Y-10190174D01*
X11524943Y-10190174D02*
X11534467Y-10199698D01*
X11534467Y-10199698D02*
X11543991Y-10218746D01*
X11543991Y-10218746D02*
X11543991Y-10275889D01*
X11543991Y-10275889D02*
X11534467Y-10294936D01*
X11534467Y-10294936D02*
X11524943Y-10304460D01*
X11524943Y-10304460D02*
X11505896Y-10313984D01*
X11505896Y-10313984D02*
X11467801Y-10313984D01*
X11467801Y-10313984D02*
X11448753Y-10304460D01*
X11629705Y-10294936D02*
X11639229Y-10304460D01*
X11639229Y-10304460D02*
X11629705Y-10313984D01*
X11629705Y-10313984D02*
X11620182Y-10304460D01*
X11620182Y-10304460D02*
X11629705Y-10294936D01*
X11629705Y-10294936D02*
X11629705Y-10313984D01*
X11629705Y-10190174D02*
X11639229Y-10199698D01*
X11639229Y-10199698D02*
X11629705Y-10209222D01*
X11629705Y-10209222D02*
X11620182Y-10199698D01*
X11620182Y-10199698D02*
X11629705Y-10190174D01*
X11629705Y-10190174D02*
X11629705Y-10209222D01*
M02*
