M48
; DRILL file {KiCad 8.0.9-8.0.9-0~ubuntu24.04.1} date 2025-06-12T22:50:09-0400
; FORMAT={-:-/ absolute / inch / decimal}
; #@! TF.CreationDate,2025-06-12T22:50:09-04:00
; #@! TF.GenerationSoftware,Kicad,Pcbnew,8.0.9-8.0.9-0~ubuntu24.04.1
; #@! TF.FileFunction,Plated,1,4,PTH
FMAT,2
INCH
; #@! TA.AperFunction,Plated,PTH,ViaDrill
T1C0.0118
; #@! TA.AperFunction,Plated,PTH,ComponentDrill
T2C0.0394
%
G90
G05
T1
X4.7882Y-2.3189
X4.7886Y-3.2122
X4.8031Y-2.0925
X4.8031Y-3.1154
X4.8173Y-3.2122
X4.8189Y-2.3189
X5.2216Y-3.2135
X5.2362Y-3.115
X5.2507Y-3.2134
X5.4562Y-2.3192
X5.4715Y-2.0956
X5.4877Y-2.3192
X5.6551Y-3.2126
X5.6693Y-3.1154
X5.6839Y-3.2126
X6.1417Y-2.3024
X6.5209Y-3.2126
X6.5354Y-3.0799
X6.55Y-3.2118
X6.7959Y-2.3218
X6.811Y-2.1063
X6.8262Y-2.3218
X7.0331Y-3.213
X7.0472Y-3.0815
X7.0614Y-3.213
X7.4807Y-2.3205
X7.5445Y-3.2134
X7.5591Y-3.0815
X7.5736Y-3.2126
T2
X4.0157Y-2.0472
X4.0157Y-2.1472
X4.0157Y-2.2472
X4.0157Y-2.3472
X4.0157Y-2.4472
X4.0157Y-2.5472
X4.0157Y-2.6472
X4.0157Y-2.7472
X4.0157Y-2.8472
X4.0157Y-2.9472
X4.0157Y-3.0472
X4.0157Y-3.1472
X4.1157Y-2.0472
X4.1157Y-2.1472
X4.1157Y-2.2472
X4.1157Y-2.3472
X4.1157Y-2.4472
X4.1157Y-2.5472
X4.1157Y-2.6472
X4.1157Y-2.7472
X4.1157Y-2.8472
X4.1157Y-2.9472
X4.1157Y-3.0472
X4.1157Y-3.1472
M30
